<svg width="52" height="52" viewBox="0 0 52 52" fill="none" xmlns="http://www.w3.org/2000/svg">
<rect x="0.5" y="0.5" width="51" height="51" rx="4.5" fill="white" stroke="#CCCCCC"/>
<path d="M39.8317 17.3943L38.7984 21.7327L35.8533 24.0472L23.8661 33.4653L25.9993 35.5985L22.2662 36.1317L20.7423 34.6079L19.1851 36.0124C21.1749 38.1183 23.4574 39.9635 25.9993 41.4647C33.4814 37.0437 38.7864 29.7088 40.6443 21.2188L41.4649 17.4663C40.9176 17.4663 40.3736 17.4417 39.8317 17.3943Z" fill="black" fill-opacity="0.08"/>
<path d="M18.5327 28.1323L29.9726 13.5726L25.9988 10.5335L22.0164 13.5793C18.7193 16.1004 14.6843 17.4663 10.5332 17.4663L11.3538 21.2188C12.2491 25.3111 13.9523 29.1309 16.3081 32.49L17.4661 31.3321L15.8662 29.7322L16.3995 25.9991L18.5327 28.1323Z" fill="black" fill-opacity="0.08"/>
<path d="M35.0654 16.933L32.9322 19.0662L21.1997 30.7988L23.8662 33.4653L35.8534 24.0472L38.7985 21.7327L41.465 10.5335L35.0654 16.933Z" fill="black" fill-opacity="0.08"/>
<path d="M30.2648 13.2L29.9721 13.5719L18.5322 28.1323L21.1987 30.7988L32.9313 19.0662L35.0644 16.933L41.464 10.5335L30.2648 13.2Z" fill="black" fill-opacity="0.08"/>
<path d="M16.3995 25.9991L15.8662 29.7322L22.2658 36.1317L25.9989 35.5984L16.3995 25.9991Z" fill="black" fill-opacity="0.08"/>
<path d="M16.3091 32.49L11.2881 37.511C10.8714 37.9276 10.8714 38.6029 11.2881 39.0189L12.9799 40.7108C13.3966 41.1274 14.0719 41.1274 14.4878 40.7108L18.5336 36.6651L15.3338 33.4653L18.5336 36.6651L20.6668 34.5319L17.467 31.3321L16.3091 32.49Z" fill="black" fill-opacity="0.08"/>
<path d="M25.9988 15.3332L23.0277 17.491C20.6912 19.2776 17.8321 20.2455 14.8916 20.2455L15.4736 22.9046C15.7055 23.9646 16.0142 24.9992 16.3942 26.0018L18.5327 28.1323L27.5841 16.6131L25.9988 15.3332Z" fill="black" fill-opacity="0.08"/>
<path d="M35.8531 24.0472C34.0992 30.0334 31.404 34.0045 25.9991 37.1983C25.3138 36.7937 24.6565 36.357 24.0259 35.891L26.2657 35.6931L24.0259 33.4652L35.8531 24.0472Z" fill="black" fill-opacity="0.08"/>
<path d="M35.065 16.933L33.6558 18.3422V25.7764L34.8943 24.8131L35.065 16.933Z" fill="black" fill-opacity="0.08"/>
<path d="M32.3231 19.6915L32.3751 26.817L31.4658 27.549V20.5274L32.3231 19.6915Z" fill="black" fill-opacity="0.08"/>
<path d="M25.7024 37.0123L26.4797 36.9016C26.875 36.6577 27.2563 36.4083 27.6223 36.1537L25.9991 34.5318L34.4625 27.8823C34.9891 26.6997 35.4478 25.4298 35.8531 24.0472L24.0259 33.4652L26.2657 35.6937L24.0259 35.8917C24.5638 36.289 25.1251 36.6597 25.7024 37.0123Z" fill="black" fill-opacity="0.08"/>
<path d="M39.8309 17.3943L38.7976 21.7327L35.8525 24.0472C35.4478 25.4298 34.9892 26.6997 34.4619 27.8823L37.9857 25.1138L40.0442 23.4966C40.2689 22.7467 40.4748 21.9894 40.6435 21.2194L41.4641 17.4663C40.9168 17.4663 40.3728 17.4417 39.8309 17.3943Z" fill="black" fill-opacity="0.08"/>
<path d="M22.2662 36.1317L20.7423 34.6078L19.1851 36.0124C19.7024 36.5603 20.241 37.089 20.7969 37.6003L22.2662 36.1317Z" fill="black" fill-opacity="0.08"/>
<path d="M10.1178 17.1324C10.0164 17.2583 9.97777 17.423 10.0124 17.581L10.833 21.3341C11.7037 25.3138 13.3195 29.0402 15.6227 32.4226L10.9104 37.135C10.2864 37.7583 10.2864 38.7736 10.9104 39.3975L12.6023 41.0894C12.9142 41.4014 13.3235 41.5574 13.7335 41.5574C14.1435 41.5574 14.5528 41.4014 14.8648 41.0894L19.1811 36.773C21.145 38.7816 23.3422 40.5161 25.728 41.926C25.812 41.9753 25.9054 42 25.9994 42C26.0933 42 26.1873 41.9753 26.2707 41.926C33.8542 37.445 39.2825 29.9395 41.165 21.3354L41.9856 17.5823C42.0196 17.4243 41.9816 17.2597 41.8803 17.1337C41.7789 17.0077 41.6263 16.933 41.4643 16.933C41.1477 16.933 40.823 16.921 40.4957 16.903L41.9829 10.6568C42.0263 10.4768 41.9723 10.2875 41.8409 10.1568C41.7096 10.0262 41.5196 9.9715 41.341 10.0148L30.1417 12.6813C30.0417 12.7047 29.9564 12.7613 29.8858 12.8346L26.3233 10.1095C26.1327 9.9635 25.8667 9.9635 25.6754 10.1095L21.6923 13.1546C18.5065 15.5918 14.5435 16.933 10.5331 16.933C10.3717 16.933 10.2191 17.0064 10.1178 17.1324ZM16.8546 25.7004C16.502 24.7525 16.2107 23.7759 15.9947 22.79L15.5507 20.7628C18.3639 20.6274 21.111 19.6282 23.3409 17.9223L25.9814 16.0044L26.8386 16.697L18.4839 27.3297L16.8546 25.7004ZM16.7766 27.1303L24.8681 35.2218L22.4549 35.5664L21.0437 34.1552L17.8439 30.9554L16.4327 29.5442L16.7766 27.1303ZM40.509 12.2427L38.3218 21.4281L23.9082 32.754L21.953 30.7988L40.509 12.2427ZM26.376 35.2218L24.6681 33.5139L34.8081 25.5458C33.0342 30.6241 30.3944 33.9119 25.9994 36.5764C25.8107 36.461 25.6247 36.3384 25.4387 36.2171L26.0747 36.1264C26.2747 36.0984 26.4413 35.9591 26.5053 35.7678C26.5693 35.5764 26.5186 35.3645 26.376 35.2218ZM18.5325 35.9111L16.0867 33.4652L17.4659 32.0867L19.9118 34.5318L18.5325 35.9111ZM14.1102 40.3341C13.9088 40.5354 13.5575 40.5354 13.3562 40.3341L11.6643 38.6422C11.5643 38.5416 11.5083 38.4076 11.5083 38.2649C11.5083 38.1223 11.5637 37.9889 11.6643 37.8876L15.3327 34.2199L17.7786 36.665L14.1102 40.3341ZM40.805 17.9883L40.1231 21.1054C38.3258 29.3189 33.1862 36.495 25.9987 40.8434C23.7948 39.5095 21.7603 37.8863 19.9344 36.0171L20.6657 35.2865L21.8883 36.509C21.989 36.6097 22.1249 36.665 22.2656 36.665C22.2909 36.665 22.3156 36.6637 22.3416 36.6597L23.8795 36.4397C24.4781 36.873 25.0967 37.285 25.7274 37.657C25.8114 37.7063 25.9047 37.731 25.9987 37.731C26.0927 37.731 26.1867 37.7063 26.27 37.657C31.507 34.5625 34.4248 30.7001 36.312 24.3632L39.1271 22.1513C39.2218 22.0773 39.2884 21.9727 39.3164 21.8554L40.2457 17.953C40.4324 17.9656 40.6204 17.9816 40.805 17.9883ZM39.7551 11.4887L34.8441 16.3997H29.1985V17.4663H33.7775L32.7109 18.5329H28.1319V19.5995H31.6443L21.199 30.0448L19.2438 28.0896L30.5697 13.6759L39.7551 11.4887ZM22.3403 14.0026L25.9987 11.2054L29.2191 13.6679L27.4979 15.8584L26.334 14.9185C26.1453 14.7658 25.8794 14.7598 25.6854 14.9018L22.7036 17.0677C20.4731 18.7729 17.6992 19.7122 14.8914 19.7122C14.7301 19.7122 14.5775 19.7855 14.4761 19.9108C14.3748 20.0362 14.3361 20.2015 14.3708 20.3595L14.9528 23.018C15.1788 24.0505 15.4821 25.0751 15.8514 26.0671L15.3387 29.6562C15.3147 29.8228 15.3707 29.9901 15.4894 30.1088L16.712 31.3321L16.3913 31.6527C14.2255 28.4283 12.7016 24.8858 11.875 21.1054L11.1937 17.989C15.2094 17.8496 19.1445 16.4464 22.3403 14.0026Z" fill="black" fill-opacity="0.08"/>
<path d="M39.8647 29.7322H40.9313V30.7988H39.8647V29.7322Z" fill="black" fill-opacity="0.08"/>
<path d="M38.7979 30.7988H39.8644V31.8654H38.7979V30.7988Z" fill="black" fill-opacity="0.08"/>
<path d="M40.9307 30.7988H41.9973V31.8654H40.9307V30.7988Z" fill="black" fill-opacity="0.08"/>
<path d="M39.8647 31.8654H40.9313V32.932H39.8647V31.8654Z" fill="black" fill-opacity="0.08"/>
<path d="M37.7319 37.1983H38.7985V38.2649H37.7319V37.1983Z" fill="black" fill-opacity="0.08"/>
<path d="M36.665 38.2649H37.7316V39.3315H36.665V38.2649Z" fill="black" fill-opacity="0.08"/>
<path d="M38.7979 38.2649H39.8644V39.3315H38.7979V38.2649Z" fill="black" fill-opacity="0.08"/>
<path d="M37.7319 39.3315H38.7985V40.3981H37.7319V39.3315Z" fill="black" fill-opacity="0.08"/>
<path d="M13.2002 10.0002H14.2668V11.0667H13.2002V10.0002Z" fill="black" fill-opacity="0.08"/>
<path d="M12.1333 11.0667H13.1999V12.1333H12.1333V11.0667Z" fill="black" fill-opacity="0.08"/>
<path d="M14.2666 11.0667H15.3332V12.1333H14.2666V11.0667Z" fill="black" fill-opacity="0.08"/>
<path d="M13.2002 12.1334H14.2668V13.2H13.2002V12.1334Z" fill="black" fill-opacity="0.08"/>
<path d="M32.3984 38.2649H33.465V39.3315H32.3984V38.2649Z" fill="black" fill-opacity="0.08"/>
<path d="M17.4663 10.5335H18.5329V11.6001H17.4663V10.5335Z" fill="black" fill-opacity="0.08"/>
<path d="M10 14.7999H11.0666V15.8665H10V14.7999Z" fill="black" fill-opacity="0.08"/>
<path d="M40.9307 40.9314H41.9973V41.998H40.9307V40.9314Z" fill="black" fill-opacity="0.08"/>
</svg>
