<svg width="42" height="42" viewBox="0 0 42 42" fill="none" xmlns="http://www.w3.org/2000/svg">
<path d="M39.1538 9.70508L37.7977 15.3992L33.9322 18.437L18.199 30.7981L20.9988 33.598L16.0992 34.2979L14.099 32.2978L12.0552 34.1413C14.6669 36.9052 17.6627 39.3271 20.9988 41.2974C30.8192 35.4948 37.7819 25.8679 40.2204 14.7246L41.2974 9.79957C40.5791 9.79957 39.8652 9.7672 39.1538 9.70508Z" fill="#63C1FF"/>
<path d="M11.199 23.7986L26.2139 4.68905L20.9983 0.700195L15.7714 4.6978C11.444 8.00683 6.14796 9.79958 0.699707 9.79958L1.77676 14.7246C2.9518 20.0959 5.18728 25.1093 8.27932 29.5181L9.79909 27.9984L7.69923 25.8985L8.39919 20.9988L11.199 23.7986Z" fill="#63C1FF"/>
<path d="M32.898 9.09963L30.0982 11.8994L14.6992 27.2984L18.199 30.7982L33.9322 18.437L37.7977 15.3992L41.2974 0.700195L32.898 9.09963Z" fill="#DFDFDF"/>
<path d="M26.5977 4.19996L26.2136 4.68818L11.1987 23.7986L14.6985 27.2984L30.0975 11.8994L32.8973 9.09963L41.2967 0.700195L26.5977 4.19996Z" fill="#F5F5F5"/>
<path d="M8.39917 20.9988L7.69922 25.8984L16.0987 34.2979L20.9983 33.5979L8.39917 20.9988Z" fill="#8C421C"/>
<path d="M8.28045 29.5181L1.6904 36.1081C1.14356 36.655 1.14356 37.5413 1.6904 38.0872L3.911 40.3078C4.45784 40.8547 5.34415 40.8547 5.89012 40.3078L11.2001 34.9978L7.00042 30.7981L11.2001 34.9978L13.9999 32.198L9.80023 27.9983L8.28045 29.5181Z" fill="#BEBEBE"/>
<path d="M20.9987 6.99976L17.0991 9.83194C14.0324 12.1768 10.2798 13.4472 6.42041 13.4472L7.18423 16.9373C7.48871 18.3285 7.89381 19.6864 8.39253 21.0023L11.1993 23.7986L23.0793 8.67964L20.9987 6.99976Z" fill="#4398D1"/>
<path d="M33.9324 18.4369C31.6304 26.2939 28.093 31.5059 20.999 35.6977C20.0996 35.1666 19.2369 34.5935 18.4092 33.982L21.349 33.7221L18.4092 30.7981L33.9324 18.4369Z" fill="#4398D1"/>
<path d="M32.898 9.09949L31.0483 10.9491V20.7065L32.674 19.4422L32.898 9.09949Z" fill="#F5F5F5"/>
<path d="M29.2995 12.7201L29.3677 22.0723L28.1743 23.033V13.8173L29.2995 12.7201Z" fill="#F5F5F5"/>
<path d="M20.6097 35.4536L21.6298 35.3084C22.1487 34.9881 22.6491 34.6609 23.1295 34.3267L20.999 32.198L32.1073 23.4704C32.7985 21.9183 33.4004 20.2515 33.9324 18.4369L18.4092 30.7981L21.349 33.723L18.4092 33.9828C19.1153 34.5043 19.852 34.9908 20.6097 35.4536Z" fill="#3C89BD"/>
<path d="M39.1532 9.70508L37.7971 15.3992L33.9316 18.437C33.4005 20.2516 32.7985 21.9184 32.1064 23.4705L36.7314 19.8369L39.4332 17.7143C39.7281 16.73 39.9984 15.736 40.2198 14.7255L41.2968 9.79957C40.5785 9.79957 39.8645 9.7672 39.1532 9.70508Z" fill="#5CB3ED"/>
<path d="M16.0992 34.2978L14.099 32.2977L12.0552 34.1412C12.7341 34.8604 13.4411 35.5543 14.1708 36.2253L16.0992 34.2978Z" fill="#5CB3ED"/>
<path d="M0.154561 9.36121C0.0215702 9.52657 -0.0291764 9.74268 0.0163205 9.95005L1.09337 14.876C2.23605 20.0994 4.3569 24.9903 7.37982 29.4297L1.19487 35.6147C0.375921 36.4328 0.375921 37.7653 1.19487 38.5842L3.41547 40.8048C3.82494 41.2143 4.36215 41.419 4.90024 41.419C5.43833 41.419 5.97554 41.2143 6.38502 40.8048L12.0503 35.1396C14.6278 37.7758 17.5116 40.0524 20.643 41.9029C20.7533 41.9676 20.8758 42 20.9991 42C21.1225 42 21.2459 41.9676 21.3553 41.9029C31.3086 36.0215 38.4332 26.1706 40.9041 14.8777L41.9811 9.95179C42.0257 9.74443 41.9759 9.52832 41.8429 9.36296C41.7099 9.1976 41.5095 9.0996 41.2969 9.0996C40.8813 9.0996 40.4552 9.08385 40.0256 9.06023L41.9776 0.862035C42.0345 0.625801 41.9636 0.377318 41.7912 0.20583C41.6189 0.0343414 41.3695 -0.0374037 41.135 0.0194674L26.436 3.51923C26.3048 3.54985 26.1928 3.62422 26.1001 3.72047L21.4244 0.143709C21.1741 -0.047903 20.825 -0.047903 20.5739 0.143709L15.3462 4.14044C11.1648 7.33922 5.96329 9.0996 0.699649 9.0996C0.487914 9.0996 0.287552 9.19585 0.154561 9.36121ZM8.99671 20.6068C8.53387 19.3627 8.15152 18.0809 7.86804 16.7868L7.28533 14.1261C10.9776 13.9485 14.5832 12.637 17.5099 10.398L20.9755 7.88081L22.1007 8.78987L11.1351 22.7452L8.99671 20.6068ZM8.89435 22.4836L19.5144 33.1036L16.3471 33.5559L14.4948 31.7037L10.2951 27.504L8.44287 25.6517L8.89435 22.4836ZM40.0431 2.94352L37.1724 14.9993L18.2545 29.8646L15.6883 27.2984L40.0431 2.94352ZM21.4935 33.1036L19.2519 30.862L32.5606 20.4038C30.2324 27.0691 26.7676 31.3843 20.9991 34.8815C20.7515 34.7301 20.5074 34.5691 20.2633 34.4099L21.098 34.2909C21.3605 34.2542 21.5792 34.0713 21.6632 33.8202C21.7472 33.5691 21.6807 33.2908 21.4935 33.1036ZM11.1989 34.0083L7.98878 30.7981L9.79903 28.9888L13.0092 32.198L11.1989 34.0083ZM5.39458 39.8135C5.13035 40.0778 4.66926 40.0778 4.40502 39.8135L2.18442 37.5929C2.05318 37.4608 1.97969 37.2849 1.97969 37.0977C1.97969 36.9105 2.05231 36.7355 2.18442 36.6025L6.99922 31.7886L10.2094 34.9978L5.39458 39.8135ZM40.4316 10.4846L39.5365 14.5759C37.1777 25.356 30.4319 34.7747 20.9983 40.482C18.1057 38.7312 15.4354 36.6007 13.0389 34.1474L13.9987 33.1885L15.6034 34.7931C15.7355 34.9252 15.914 34.9978 16.0986 34.9978C16.1319 34.9978 16.1642 34.9961 16.1984 34.9909L18.2168 34.7021C19.0025 35.2708 19.8145 35.8115 20.6422 36.2998C20.7524 36.3645 20.8749 36.3969 20.9983 36.3969C21.1216 36.3969 21.245 36.3645 21.3544 36.2998C28.2279 32.2383 32.0575 27.1689 34.5345 18.8517L38.2294 15.9486C38.3536 15.8515 38.4411 15.7142 38.4778 15.5602L39.6975 10.4383C39.9425 10.4549 40.1892 10.4759 40.4316 10.4846ZM39.0536 1.95396L32.6079 8.39965H25.198V9.79956H31.208L29.8081 11.1995H23.7981V12.5994H28.4081L14.6987 26.3088L12.1325 23.7426L26.9977 4.82464L39.0536 1.95396ZM16.1966 5.25336L20.9983 1.58211L25.2251 4.81414L22.966 7.6892L21.4384 6.45553C21.1908 6.25517 20.8417 6.2473 20.5871 6.43366L16.6734 9.27634C13.7459 11.5144 10.1053 12.7472 6.42001 12.7472C6.20828 12.7472 6.00792 12.8435 5.87492 13.008C5.74193 13.1725 5.69119 13.3894 5.73668 13.5968L6.50051 17.0861C6.79711 18.4413 7.19521 19.7861 7.67993 21.088L7.0071 25.7987C6.9756 26.0175 7.04909 26.2371 7.20483 26.3928L8.80948 27.9983L8.38863 28.4192C5.54595 24.1871 3.54583 19.5376 2.4609 14.5759L1.56672 10.4855C6.83736 10.3026 12.0021 8.4609 16.1966 5.25336Z" fill="black"/>
<path d="M39.1973 25.8986H40.5972V27.2985H39.1973V25.8986Z" fill="black"/>
<path d="M37.7974 27.2983H39.1973V28.6982H37.7974V27.2983Z" fill="black"/>
<path d="M40.5967 27.2983H41.9966V28.6982H40.5967V27.2983Z" fill="black"/>
<path d="M39.1973 28.6982H40.5972V30.0981H39.1973V28.6982Z" fill="black"/>
<path d="M36.3979 35.6978H37.7979V37.0977H36.3979V35.6978Z" fill="black"/>
<path d="M34.998 37.0977H36.398V38.4976H34.998V37.0977Z" fill="black"/>
<path d="M37.7974 37.0977H39.1973V38.4976H37.7974V37.0977Z" fill="black"/>
<path d="M36.3979 38.4976H37.7979V39.8975H36.3979V38.4976Z" fill="black"/>
<path d="M4.20068 0.000244141H5.60059V1.40015H4.20068V0.000244141Z" fill="black"/>
<path d="M2.7998 1.40015H4.19971V2.80005H2.7998V1.40015Z" fill="black"/>
<path d="M5.6001 1.40015H7V2.80005H5.6001V1.40015Z" fill="black"/>
<path d="M4.20068 2.80005H5.60059V4.19995H4.20068V2.80005Z" fill="black"/>
<path d="M29.3979 37.0977H30.7979V38.4976H29.3979V37.0977Z" fill="black"/>
<path d="M9.79932 0.700195H11.1992V2.1001H9.79932V0.700195Z" fill="black"/>
<path d="M0 6.2998H1.39991V7.69971H0V6.2998Z" fill="black"/>
<path d="M40.5967 40.5975H41.9966V41.9974H40.5967V40.5975Z" fill="black"/>
</svg>
