<svg width="32" height="32" viewBox="0 0 32 32" fill="none" xmlns="http://www.w3.org/2000/svg">
<g clip-path="url(#clip0_7_21901)">
<path d="M0.75 16C0.75 7.57766 7.57766 0.75 16 0.75C24.4223 0.75 31.25 7.57766 31.25 16C31.25 24.4223 24.4223 31.25 16 31.25C7.57766 31.25 0.75 24.4223 0.75 16Z" stroke="#999999" stroke-width="1.5"/>
<path fill-rule="evenodd" clip-rule="evenodd" d="M18.4436 23.6743L11.228 16.5431C10.924 16.2429 10.924 15.7579 11.228 15.4569L18.4436 8.32572C18.8825 7.89143 19.5966 7.89143 20.0363 8.32572C20.4751 8.76002 20.4751 9.46488 20.0363 9.89917L13.8637 16.0004L20.0363 22.1C20.4751 22.5351 20.4751 23.24 20.0363 23.6743C19.5966 24.1086 18.8825 24.1086 18.4436 23.6743Z" fill="#999999"/>
</g>
<defs>
<clipPath id="clip0_7_21901">
<rect width="32" height="32" fill="white"/>
</clipPath>
</defs>
</svg>
