<svg width="24" height="24" viewBox="0 0 24 24" fill="none" xmlns="http://www.w3.org/2000/svg">
<path fill-rule="evenodd" clip-rule="evenodd" d="M21.1673 3.4294H18.8028L18.8125 6.29672L21.1673 8.29442V3.4294ZM0 11.7436C0 11.7436 0.75236 13.1301 2.39298 11.7436L12.1976 3.44894L21.3903 11.692C23.2894 13.0617 24 11.692 24 11.692L12.1976 1L0 11.7436ZM3.26348 21.7285C3.26348 21.7285 3.24216 22.2659 3.76624 22.2659C4.41822 22.2659 9.8162 22.2579 9.8162 22.2579L9.82509 17.3005C9.82509 17.3005 9.73981 16.4833 10.533 16.4833H13.0433C13.9813 16.4833 13.9235 17.3005 13.9235 17.3005L13.9129 22.2419H19.8349C20.5002 22.2419 20.47 21.574 20.47 21.574V12.4346L12.1239 5.01051L3.26348 12.4346V21.7285Z" fill="#999999"/>
</svg>
