<svg width="52" height="52" viewBox="0 0 52 52" fill="none" xmlns="http://www.w3.org/2000/svg">
<rect x="0.5" y="0.5" width="51" height="51" rx="4.5" fill="white" stroke="#CCCCCC"/>
<path d="M41.0622 42.0001H27.8784C27.3609 42.0001 26.9409 41.5806 26.9409 41.0623V39.4688C26.9409 37.2238 27.9278 35.2052 29.4909 33.8242C30.819 32.6508 38.1609 32.6664 39.494 33.8636C41.0315 35.244 41.9997 37.2451 41.9997 39.4688V41.0623C41.9997 41.5806 41.5803 42.0001 41.0622 42.0001Z" fill="black" fill-opacity="0.08"/>
<path d="M39.4942 33.8643C38.8273 33.266 36.6598 32.9628 34.4917 32.9553V42.0001H41.0623C41.5798 42.0001 41.9998 41.5806 41.9998 41.0624V39.4688C41.9998 37.2452 41.0317 35.244 39.4942 33.8643Z" fill="black" fill-opacity="0.08"/>
<path d="M34.4706 22.4374C32.9199 22.4374 31.6587 21.1759 31.6587 19.6248C31.6587 18.0738 32.9199 16.8123 34.4706 16.8123C36.0212 16.8123 37.2824 18.0738 37.2824 19.6248C37.2824 21.1759 36.0212 22.4374 34.4706 22.4374Z" fill="black" fill-opacity="0.08"/>
<path d="M34.4927 16.813V22.4369C36.0333 22.425 37.2827 21.1685 37.2827 19.6249C37.2827 18.0814 36.0327 16.8249 34.4927 16.813Z" fill="black" fill-opacity="0.08"/>
<path d="M24.1212 42H10.9375C10.42 42 10 41.5806 10 41.0623V39.4688C10 37.0169 11.1775 34.8345 12.9969 33.4585C13.2581 33.261 13.6731 33.6217 13.9594 33.4585C14.2456 33.2953 14.4037 32.6089 14.7119 32.4845C15.5825 32.1319 16.5337 31.9375 17.5294 31.9375C18.4831 31.9375 19.3956 32.1157 20.2362 32.4408C20.5631 32.567 20.4737 33.843 20.7769 34.0118C21.0837 34.1831 21.7831 33.2478 22.0625 33.4585C23.8819 34.8345 25.0594 37.0169 25.0594 39.4688V41.0623C25.0587 41.5806 24.6387 42 24.1212 42Z" fill="black" fill-opacity="0.08"/>
<path d="M22.0619 33.4585C21.7832 33.2478 21.0838 34.1831 20.7763 34.0118C20.4732 33.843 20.5626 32.567 20.2357 32.4408C19.3951 32.1157 18.4826 31.9375 17.5288 31.9375V42H24.1207C24.6382 42 25.0582 41.5806 25.0582 41.0623V39.4688C25.0588 37.0169 23.8813 34.8351 22.0619 33.4585Z" fill="black" fill-opacity="0.08"/>
<path d="M20.5589 32.8152C19.4764 32.2119 18.8545 31.9375 17.5295 31.9375C16.2045 31.9375 15.4995 32.3645 14.417 32.9678C14.5082 34.9064 15.5689 36.368 17.5295 36.368C19.4901 36.368 20.467 34.7538 20.5589 32.8152Z" fill="black" fill-opacity="0.08"/>
<path d="M17.5293 31.9375V36.368C19.4905 36.368 20.4668 34.7538 20.5587 32.8152C19.4762 32.2119 18.8537 31.9375 17.5293 31.9375Z" fill="black" fill-opacity="0.08"/>
<path d="M12.9966 33.4589C13.3553 35.6376 15.251 37.3055 17.5291 37.3055C19.8072 37.3055 21.7028 35.6376 22.0616 33.4589C21.5072 33.0394 20.8934 32.6956 20.236 32.4412C20.2447 32.5293 20.2491 32.6193 20.2491 32.71C20.2491 34.2104 19.0291 35.4307 17.5291 35.4307C16.0291 35.4307 14.8091 34.2104 14.8091 32.71C14.8091 32.6193 14.8135 32.5299 14.8222 32.4412C14.1647 32.6956 13.551 33.0394 12.9966 33.4589Z" fill="black" fill-opacity="0.08"/>
<path d="M32.7525 37.2031C32.7668 37.2031 32.7806 37.2025 32.795 37.2018C33.0875 37.1887 33.3568 37.0393 33.5231 36.7986L34.4706 35.4295L35.4181 36.7986C35.5831 37.0374 35.8493 37.1862 36.1393 37.2012C36.4293 37.2169 36.7093 37.0968 36.8987 36.8768L39.4937 33.8635C38.16 32.6663 36.3987 31.9368 34.47 31.9368C32.5625 31.9368 30.8193 32.6501 29.4912 33.8235L32.0325 36.8661C32.2118 37.0806 32.475 37.2031 32.7525 37.2031Z" fill="black" fill-opacity="0.08"/>
<path d="M20.2357 32.4412C20.2444 32.5293 20.2488 32.6193 20.2488 32.71C20.2488 34.2104 19.0288 35.4307 17.5288 35.4307V37.3055C19.8069 37.3055 21.7026 35.6376 22.0613 33.4589C21.5076 33.0394 20.8938 32.6956 20.2357 32.4412Z" fill="black" fill-opacity="0.08"/>
<path d="M34.4927 31.938V35.4614L35.4189 36.7992C35.5839 37.038 35.8502 37.1868 36.1402 37.2018C36.4302 37.2174 36.7102 37.0974 36.8995 36.8774L39.4945 33.8641C38.1658 32.6713 36.4127 31.943 34.4927 31.938Z" fill="black" fill-opacity="0.08"/>
<path d="M11.1043 26.4797C11.0712 26.7448 11.0537 27.0149 11.0537 27.2893C11.0537 30.8608 13.9587 33.766 17.5287 33.766C21.0987 33.766 24.0037 30.8602 24.0037 27.2893C24.0037 27.0155 23.9862 26.7448 23.9531 26.4797H11.1043V26.4797Z" fill="black" fill-opacity="0.08"/>
<path d="M23.9543 26.4797H17.5293V33.766C21.0999 33.766 24.0043 30.8602 24.0043 27.2893C24.0043 27.0155 23.9874 26.7454 23.9543 26.4797Z" fill="black" fill-opacity="0.08"/>
<path d="M34.4706 33.7667C30.9 33.7667 27.9956 30.861 27.9956 27.2901C27.9956 26.9681 28.0194 26.6512 28.065 26.3411C28.525 23.2178 40.1675 23.0021 40.7993 25.9154C40.8956 26.3586 40.9462 26.8181 40.9462 27.2901C40.9462 30.861 38.0412 33.7667 34.4706 33.7667Z" fill="black" fill-opacity="0.08"/>
<path d="M40.7995 25.9153C40.4877 24.4787 37.4983 23.8029 34.4927 23.8617V33.7667C38.0533 33.7548 40.9464 30.8541 40.9464 27.29C40.9464 26.8181 40.8958 26.3586 40.7995 25.9153Z" fill="black" fill-opacity="0.08"/>
<path d="M25.9958 20.6539C24.5927 20.6539 22.6583 18.6678 22.2852 18.2696C21.4058 17.3319 19.9302 15.4833 19.9302 13.6384C19.9302 11.6323 21.562 10 23.5677 10C24.487 10 25.3427 10.337 25.9958 10.9246C26.6495 10.337 27.5052 10 28.4245 10C30.4302 10 32.062 11.6323 32.062 13.6384C32.062 15.6364 30.5808 17.4688 29.6977 18.3834C28.6858 19.4305 27.1095 20.6539 25.9958 20.6539Z" fill="black" fill-opacity="0.08"/>
<path d="M40.9157 26.6635C40.6001 23.3845 37.8301 20.812 34.4707 20.812C31.1145 20.812 28.347 23.3795 28.0264 26.6535C28.5476 26.786 29.0851 26.8535 29.6314 26.8535C31.507 26.8535 33.2707 26.0421 34.4926 24.6717C35.7145 26.0421 37.4782 26.8535 39.3539 26.8535C39.8845 26.8542 40.407 26.7891 40.9157 26.6635Z" fill="black" fill-opacity="0.08"/>
<path d="M11.0718 26.8123H23.9874C23.7424 23.4627 20.9399 20.812 17.5299 20.812C14.1193 20.8126 11.3162 23.4633 11.0718 26.8123Z" fill="black" fill-opacity="0.08"/>
<path d="M28.4242 10C27.5048 10 26.6492 10.337 25.9961 10.9246V20.6539C27.1098 20.6539 28.6861 19.4311 29.6973 18.3834C30.5805 17.4688 32.0617 15.6364 32.0617 13.6384C32.0617 11.6323 30.4298 10 28.4242 10Z" fill="black" fill-opacity="0.08"/>
<path d="M17.5293 26.8123H23.9868C23.7418 23.4627 20.9393 20.812 17.5293 20.812V26.8123Z" fill="black" fill-opacity="0.08"/>
<path d="M34.4927 20.8127V24.6725C35.7145 26.0428 37.4783 26.8543 39.3539 26.8543C39.8852 26.8543 40.4077 26.7893 40.9164 26.6642C40.6008 23.3921 37.842 20.824 34.4927 20.8127Z" fill="black" fill-opacity="0.08"/>
</svg>
