<svg width="52" height="52" viewBox="0 0 52 52" fill="none" xmlns="http://www.w3.org/2000/svg">
<rect x="0.5" y="0.5" width="51" height="51" rx="4.5" fill="white" stroke="#CCCCCC"/>
<path d="M41.0701 42H27.8831C27.3654 42 26.9453 41.5805 26.9453 41.0623V39.4687C26.9453 37.2238 27.9324 35.2052 29.496 33.8242C30.8244 32.6508 38.1682 32.6664 39.5016 33.8636C41.0395 35.2439 42.0079 37.245 42.0079 39.4687V41.0623C42.0079 41.5805 41.5884 42 41.0701 42Z" fill="#FE7CB8"/>
<path d="M39.5018 33.8642C38.8348 33.2659 36.6667 32.9627 34.498 32.9552V42H41.0703C41.588 42 42.0081 41.5805 42.0081 41.0623V39.4687C42.0081 37.245 41.0397 35.2439 39.5018 33.8642Z" fill="#FF3A80"/>
<path d="M34.4767 22.4375C32.9256 22.4375 31.6641 21.176 31.6641 19.6249C31.6641 18.0739 32.9256 16.8123 34.4767 16.8123C36.0277 16.8123 37.2892 18.0739 37.2892 19.6249C37.2892 21.176 36.0277 22.4375 34.4767 22.4375Z" fill="#FDBF00"/>
<path d="M34.4985 16.813V22.4369C36.0396 22.425 37.2892 21.1685 37.2892 19.625C37.2892 18.0814 36.0389 16.8249 34.4985 16.813Z" fill="#FF8856"/>
<path d="M24.1248 42H10.9377C10.4201 42 10 41.5805 10 41.0623V39.4687C10 37.0169 11.1778 34.8344 12.9976 33.4584C13.259 33.2609 13.6741 33.6216 13.9604 33.4584C14.2467 33.2953 14.4049 32.6089 14.7131 32.4845C15.5839 32.1319 16.5354 31.9374 17.5313 31.9374C18.4853 31.9374 19.398 32.1156 20.2389 32.4407C20.5658 32.567 20.4764 33.8429 20.7796 34.0117C21.0866 34.183 21.7861 33.2478 22.0656 33.4584C23.8854 34.8344 25.0632 37.0169 25.0632 39.4687V41.0623C25.0626 41.5805 24.6425 42 24.1248 42Z" fill="#B9DD39"/>
<path d="M22.065 33.4584C21.7862 33.2478 21.0867 34.183 20.7791 34.0117C20.4759 33.8429 20.5653 32.567 20.2383 32.4407C19.3975 32.1156 18.4848 31.9374 17.5308 31.9374V42H24.1243C24.6419 42 25.062 41.5805 25.062 41.0623V39.4687C25.0627 37.0169 23.8849 34.835 22.065 33.4584Z" fill="#90CC1C"/>
<path d="M20.5614 32.8152C19.4786 32.2119 18.8566 31.9374 17.5313 31.9374C16.2059 31.9374 15.5007 32.3644 14.418 32.9677C14.5092 34.9063 15.5701 36.3679 17.5313 36.3679C19.4924 36.3679 20.4695 34.7538 20.5614 32.8152Z" fill="#FFDE3B"/>
<path d="M17.5312 31.9374V36.3679C19.493 36.3679 20.4695 34.7538 20.5614 32.8152C19.4786 32.2119 18.856 31.9374 17.5312 31.9374Z" fill="#FCBA00"/>
<path d="M12.9976 33.4591C13.3564 35.6378 15.2525 37.3057 17.5312 37.3057C19.8099 37.3057 21.706 35.6378 22.0649 33.4591C21.5103 33.0396 20.8964 32.6958 20.2388 32.4413C20.2475 32.5295 20.2519 32.6195 20.2519 32.7102C20.2519 34.2105 19.0316 35.4309 17.5312 35.4309C16.0308 35.4309 14.8105 34.2105 14.8105 32.7102C14.8105 32.6195 14.8149 32.5301 14.8236 32.4413C14.166 32.6958 13.5521 33.0396 12.9976 33.4591Z" fill="#90CC1C"/>
<path d="M32.7582 37.2032C32.7726 37.2032 32.7863 37.2025 32.8007 37.2019C33.0933 37.1888 33.3627 37.0394 33.529 36.7987L34.4767 35.4296L35.4245 36.7987C35.5895 37.0375 35.8558 37.1863 36.1459 37.2013C36.436 37.2169 36.7161 37.0969 36.9055 36.8768L39.5011 33.8636C38.167 32.6664 36.4053 31.9368 34.4761 31.9368C32.5681 31.9368 30.8246 32.6501 29.4961 33.8236L32.038 36.8662C32.2174 37.0806 32.4806 37.2032 32.7582 37.2032Z" fill="#FFF4F4"/>
<path d="M20.2383 32.4413C20.2471 32.5295 20.2515 32.6195 20.2515 32.7102C20.2515 34.2105 19.0311 35.4309 17.5308 35.4309V37.3057C19.8095 37.3057 21.7056 35.6378 22.0644 33.4591C21.5105 33.0396 20.8966 32.6958 20.2383 32.4413Z" fill="#66BB00"/>
<path d="M34.4985 31.938V35.4614L35.425 36.7993C35.5901 37.0381 35.8564 37.1869 36.1465 37.2019C36.4365 37.2175 36.7166 37.0975 36.906 36.8774L39.5017 33.8642C38.1726 32.6714 36.419 31.9431 34.4985 31.938Z" fill="#F6EFEA"/>
<path d="M11.1048 26.4798C11.0717 26.7449 11.0542 27.0149 11.0542 27.2894C11.0542 30.8609 13.9599 33.766 17.5308 33.766C21.1018 33.766 24.0075 30.8603 24.0075 27.2894C24.0075 27.0156 23.99 26.7449 23.9569 26.4798H11.1048V26.4798Z" fill="#FFE4C1"/>
<path d="M23.9579 26.4798H17.5312V33.766C21.1028 33.766 24.0079 30.8603 24.0079 27.2894C24.0079 27.0156 23.991 26.7455 23.9579 26.4798Z" fill="#FDD1A3"/>
<path d="M34.4766 33.7666C30.9051 33.7666 28 30.8609 28 27.29C28 26.968 28.0238 26.6511 28.0694 26.341C28.5295 23.2177 40.175 23.002 40.807 25.9153C40.9033 26.3585 40.9539 26.818 40.9539 27.29C40.9539 30.8609 38.0482 33.7666 34.4766 33.7666Z" fill="#FFE4C1"/>
<path d="M40.807 25.9153C40.4951 24.4787 37.5049 23.8029 34.4985 23.8616V33.7667C38.0601 33.7548 40.9539 30.854 40.9539 27.29C40.9539 26.818 40.9033 26.3585 40.807 25.9153Z" fill="#FDD1A3"/>
<path d="M25.9998 20.654C24.5963 20.654 22.6614 18.6678 22.2882 18.2696C21.4086 17.3319 19.9326 15.4833 19.9326 13.6384C19.9326 11.6323 21.5649 10 23.571 10C24.4906 10 25.3465 10.337 25.9998 10.9246C26.6537 10.337 27.5095 10 28.4292 10C30.4353 10 32.0676 11.6323 32.0676 13.6384C32.0676 15.6364 30.5859 17.4688 29.7026 18.3834C28.6905 19.4305 27.1138 20.654 25.9998 20.654Z" fill="#FF415B"/>
<path d="M40.9234 26.6636C40.6077 23.3846 37.837 20.8121 34.4768 20.8121C31.1197 20.8121 28.3515 23.3796 28.0308 26.6536C28.5521 26.7861 29.0898 26.8536 29.6362 26.8536C31.5123 26.8536 33.2765 26.0422 34.4987 24.6718C35.7208 26.0422 37.485 26.8536 39.3611 26.8536C39.8919 26.8543 40.4145 26.7892 40.9234 26.6636Z" fill="#FFDE3B"/>
<path d="M11.0723 26.8124H23.9912C23.7461 23.4628 20.9429 20.8121 17.532 20.8121C14.1205 20.8127 11.3167 23.4634 11.0723 26.8124Z" fill="#453D81"/>
<path d="M28.4292 10C27.5096 10 26.6538 10.337 26.0005 10.9246V20.654C27.1145 20.654 28.6912 19.4311 29.7027 18.3834C30.586 17.4688 32.0677 15.6364 32.0677 13.6384C32.0677 11.6323 30.4354 10 28.4292 10Z" fill="#E50058"/>
<path d="M17.5312 26.8124H23.9904C23.7453 23.4628 20.9421 20.8121 17.5312 20.8121V26.8124Z" fill="#38336B"/>
<path d="M34.4985 20.8127V24.6725C35.7207 26.0428 37.4849 26.8543 39.361 26.8543C39.8924 26.8543 40.415 26.7893 40.9239 26.6642C40.6082 23.3921 37.8488 20.824 34.4985 20.8127Z" fill="#FCBA00"/>
</svg>
