<svg width="32" height="32" viewBox="0 0 32 32" fill="none" xmlns="http://www.w3.org/2000/svg">
<g clip-path="url(#clip0_7_21905)">
<path d="M31.25 16C31.25 7.57766 24.4223 0.75 16 0.75C7.57766 0.75 0.75 7.57766 0.75 16C0.75 24.4223 7.57766 31.25 16 31.25C24.4223 31.25 31.25 24.4223 31.25 16Z" stroke="#999999" stroke-width="1.5"/>
<path fill-rule="evenodd" clip-rule="evenodd" d="M13.5564 23.6743L20.772 16.5431C21.076 16.2429 21.076 15.7579 20.772 15.4569L13.5564 8.32572C13.1175 7.89143 12.4034 7.89143 11.9637 8.32572C11.5249 8.76002 11.5249 9.46488 11.9637 9.89917L18.1363 16.0004L11.9637 22.1C11.5249 22.5351 11.5249 23.24 11.9637 23.6743C12.4034 24.1086 13.1175 24.1086 13.5564 23.6743Z" fill="#999999"/>
</g>
<defs>
<clipPath id="clip0_7_21905">
<rect width="32" height="32" fill="white" transform="matrix(-1 0 0 1 32 0)"/>
</clipPath>
</defs>
</svg>
