<svg width="24" height="24" viewBox="0 0 24 24" fill="none" xmlns="http://www.w3.org/2000/svg">
<path d="M12.0006 10.2427C11.0314 10.2427 10.2427 11.0314 10.2427 12.0006C10.2427 12.9698 11.0314 13.7585 12.0006 13.7585C12.9698 13.7585 13.7585 12.9698 13.7585 12.0006C13.7585 11.0314 12.9698 10.2427 12.0006 10.2427ZM21.6008 10.2731L19.1897 9.48247C19.0971 9.21761 18.9881 8.95549 18.8643 8.69922L19.9831 6.46237C20.096 6.23697 20.0518 5.96469 19.8733 5.78616L18.2158 4.12825C18.0373 3.94972 17.7662 3.90558 17.5396 4.01848L15.3027 5.13729C15.0465 5.01307 14.7843 4.90447 14.5195 4.81188L13.7288 2.4008C13.6487 2.16134 13.4249 2 13.1725 2H10.8286C10.5763 2 10.3524 2.16134 10.2731 2.40041L9.48247 4.81149C9.21761 4.90408 8.95549 5.01307 8.69922 5.1369L6.46237 4.01809C6.23619 3.90519 5.96508 3.94816 5.78616 4.12786L4.12825 5.78538C3.94972 5.9639 3.90558 6.23619 4.01848 6.46159L5.13729 8.69844C5.01307 8.9547 4.90447 9.21683 4.81188 9.48169L2.4008 10.2724C2.16134 10.3524 2 10.5763 2 10.8286V13.1725C2 13.4249 2.16134 13.6487 2.40041 13.728L4.81149 14.5187C4.90408 14.7836 5.01307 15.0457 5.1369 15.302L4.01809 17.5388C3.90519 17.7642 3.94933 18.0365 4.12786 18.215L5.78499 19.8721C5.96469 20.0511 6.23697 20.0952 6.4612 19.9819L8.69805 18.8631C8.95431 18.9873 9.21644 19.0959 9.4813 19.1885L10.272 21.5996C10.3513 21.8387 10.5751 22 10.8275 22H13.1714C13.4237 22 13.6476 21.8387 13.7269 21.5996L14.5175 19.1885C14.7824 19.0959 15.0445 18.9869 15.3008 18.8631L17.5376 19.9819C17.7626 20.094 18.0349 20.0499 18.2138 19.8721L19.871 18.215C20.0495 18.0365 20.0936 17.7642 19.9807 17.5388L18.8619 15.302C18.9862 15.0457 19.0948 14.7836 19.1873 14.5187L21.5984 13.728C21.8375 13.6483 21.9988 13.4249 21.9988 13.1725V10.8286C22.0012 10.5763 21.8398 10.3524 21.6008 10.2731ZM12.0006 16.1024C9.73913 16.1024 7.89878 14.262 7.89878 12.0006C7.89878 9.73913 9.73913 7.89878 12.0006 7.89878C14.262 7.89878 16.1024 9.73913 16.1024 12.0006C16.1024 14.262 14.262 16.1024 12.0006 16.1024Z" fill="#999999"/>
</svg>
