<svg width="24" height="24" viewBox="0 0 24 24" fill="none" xmlns="http://www.w3.org/2000/svg">
<path fill-rule="evenodd" clip-rule="evenodd" d="M12.0195 17.5567C11.4509 17.5567 11.0245 17.0916 11.0245 16.5618C11.0245 16.0192 11.4509 15.5669 12.0195 15.5669C12.5492 15.5669 13.0015 16.0192 13.0015 16.5618C13.0015 17.0916 12.5492 17.5567 12.0195 17.5567ZM12.0065 8.03364C12.5105 8.03364 12.9369 8.31794 12.9369 8.82184C12.9369 10.3595 12.7559 12.5691 12.7559 14.1067C12.7559 14.5073 12.3166 14.6752 12.0065 14.6752C11.5931 14.6752 11.2442 14.5073 11.2442 14.1067C11.2442 12.5691 11.0633 10.3595 11.0633 8.82184C11.0633 8.31794 11.4768 8.03364 12.0065 8.03364ZM21.824 18.1446L13.0494 3.59266C12.8276 3.22484 12.4295 3 12 3C11.5705 3 11.1723 3.22484 10.9506 3.59266L2.17601 18.1446C1.94781 18.523 1.94105 18.9951 2.1584 19.3799C2.37574 19.7647 2.78344 20.0027 3.22539 20.0027H20.7746C21.2165 20.0027 21.6242 19.7647 21.8416 19.3799C22.0589 18.9951 22.0522 18.523 21.824 18.1446Z" fill="#999999"/>
</svg>
