<svg width="43" height="42" viewBox="0 0 43 42" fill="none" xmlns="http://www.w3.org/2000/svg">
<path d="M40.7801 42H23.472C22.7926 42 22.2412 41.4495 22.2412 40.7693V38.6777C22.2412 35.7313 23.5368 33.0818 25.5889 31.2693C27.3325 29.7291 36.9712 29.7497 38.7214 31.321C40.7399 33.1327 42.0108 35.7592 42.0108 38.6777V40.7693C42.0108 41.4495 41.4603 42 40.7801 42Z" fill="#FE7CB8"/>
<path d="M38.7213 31.3217C37.8458 30.5365 35.0002 30.1385 32.1538 30.1287V42H40.7799C41.4593 42 42.0107 41.4494 42.0107 40.7692V38.6777C42.0107 35.7591 40.7397 33.1326 38.7213 31.3217Z" fill="#FF3A80"/>
<path d="M32.1256 16.3242C30.0899 16.3242 28.4341 14.6684 28.4341 12.6327C28.4341 10.597 30.0899 8.94116 32.1256 8.94116C34.1613 8.94116 35.8171 10.597 35.8171 12.6327C35.8171 14.6684 34.1613 16.3242 32.1256 16.3242Z" fill="#FDBF00"/>
<path d="M32.1548 8.94202V16.3234C34.1774 16.3078 35.8176 14.6586 35.8176 12.6327C35.8176 10.6069 34.1765 8.95761 32.1548 8.94202Z" fill="#FF8856"/>
<path d="M18.5388 41.9999H1.23078C0.55139 41.9999 0 41.4494 0 40.7692V38.6777C0 35.4596 1.54586 32.5951 3.9344 30.7892C4.27738 30.5299 4.8222 31.0033 5.198 30.7892C5.5738 30.575 5.78139 29.6741 6.18591 29.5108C7.32889 29.048 8.57773 28.7928 9.88482 28.7928C11.1369 28.7928 12.3349 29.0267 13.4385 29.4534C13.8676 29.6191 13.7503 31.2938 14.1482 31.5153C14.5511 31.7402 15.4693 30.5127 15.8361 30.7892C18.2246 32.5951 19.7705 35.4596 19.7705 38.6777V40.7692C19.7696 41.4494 19.2182 41.9999 18.5388 41.9999Z" fill="#B9DD39"/>
<path d="M15.835 30.7892C15.4691 30.5127 14.5509 31.7402 14.1472 31.5153C13.7493 31.2938 13.8666 29.6191 13.4375 29.4534C12.3339 29.0267 11.1359 28.7928 9.88379 28.7928V41.9999H18.5378C19.2172 41.9999 19.7686 41.4494 19.7686 40.7692V38.6777C19.7694 35.4596 18.2236 32.596 15.835 30.7892Z" fill="#90CC1C"/>
<path d="M13.8621 29.9449C12.4409 29.1531 11.6245 28.7928 9.88502 28.7928C8.14552 28.7928 7.21997 29.3533 5.79883 30.1451C5.91862 32.6895 7.31105 34.6079 9.88502 34.6079C12.459 34.6079 13.7415 32.4893 13.8621 29.9449Z" fill="#FFDE3B"/>
<path d="M9.88477 28.7928V34.6079C12.4596 34.6079 13.7412 32.4893 13.8618 29.9449C12.4407 29.1531 11.6234 28.7928 9.88477 28.7928Z" fill="#FCBA00"/>
<path d="M3.93457 30.79C4.40555 33.6495 6.89419 35.8387 9.88499 35.8387C12.8758 35.8387 15.3644 33.6495 15.8354 30.79C15.1076 30.2395 14.3019 29.7882 13.4387 29.4542C13.4502 29.5699 13.4559 29.6881 13.4559 29.807C13.4559 31.7763 11.8542 33.378 9.88499 33.378C7.91574 33.378 6.31408 31.7763 6.31408 29.807C6.31408 29.6881 6.31982 29.5707 6.33131 29.4542C5.46812 29.7882 4.66237 30.2395 3.93457 30.79Z" fill="#90CC1C"/>
<path d="M29.8703 35.7042C29.8892 35.7042 29.9073 35.7034 29.9261 35.7025C30.3101 35.6853 30.6638 35.4892 30.882 35.1733L32.126 33.3764L33.3699 35.1733C33.5865 35.4867 33.936 35.682 34.3167 35.7017C34.6975 35.7222 35.0651 35.5647 35.3137 35.2759L38.7205 31.321C36.9695 29.7497 34.6573 28.7921 32.1251 28.7921C29.6209 28.7921 27.3325 29.7283 25.5889 31.2684L28.9251 35.2619C29.1606 35.5434 29.506 35.7042 29.8703 35.7042Z" fill="#FFF4F4"/>
<path d="M13.4375 29.4542C13.449 29.5699 13.4547 29.6881 13.4547 29.807C13.4547 31.7763 11.853 33.378 9.88379 33.378V35.8387C12.8746 35.8387 15.3632 33.6495 15.8342 30.79C15.1072 30.2395 14.3015 29.7882 13.4375 29.4542Z" fill="#66BB00"/>
<path d="M32.1548 28.7937V33.4182L33.3708 35.1741C33.5874 35.4875 33.937 35.6828 34.3177 35.7025C34.6984 35.723 35.066 35.5655 35.3146 35.2766L38.7214 31.3217C36.977 29.7562 34.6754 28.8003 32.1548 28.7937Z" fill="#F6EFEA"/>
<path d="M1.44976 21.6298C1.40628 21.9777 1.3833 22.3321 1.3833 22.6923C1.3833 27.38 5.19708 31.1929 9.8839 31.1929C14.5707 31.1929 18.3845 27.3792 18.3845 22.6923C18.3845 22.3329 18.3615 21.9777 18.318 21.6298H1.44976Z" fill="#FFE4C1"/>
<path d="M18.3197 21.6298H9.88477V31.1929C14.5724 31.1929 18.3854 27.3792 18.3854 22.6923C18.3854 22.3329 18.3632 21.9785 18.3197 21.6298Z" fill="#FDD1A3"/>
<path d="M32.1256 31.1937C27.438 31.1937 23.625 27.38 23.625 22.6931C23.625 22.2706 23.6562 21.8546 23.7161 21.4476C24.32 17.3483 39.6046 17.0652 40.4342 20.8888C40.5606 21.4706 40.627 22.0737 40.627 22.6931C40.627 27.38 36.8132 31.1937 32.1256 31.1937Z" fill="#FFE4C1"/>
<path d="M40.4347 20.8889C40.0252 19.0033 36.1007 18.1163 32.1548 18.1935V31.1938C36.8293 31.1782 40.6275 27.371 40.6275 22.6932C40.6275 22.0737 40.561 21.4706 40.4347 20.8889Z" fill="#FDD1A3"/>
<path d="M20.9998 13.9833C19.1577 13.9833 16.6182 11.3765 16.1283 10.8539C14.9739 9.62307 13.0366 7.19679 13.0366 4.77543C13.0366 2.14238 15.179 0 17.8121 0C19.019 0 20.1423 0.442261 20.9998 1.21355C21.858 0.442261 22.9813 0 24.1883 0C26.8214 0 28.9637 2.14238 28.9637 4.77543C28.9637 7.39782 27.0191 9.80276 25.8597 11.0032C24.5313 12.3776 22.4619 13.9833 20.9998 13.9833Z" fill="#FF415B"/>
<path d="M40.5871 21.871C40.1728 17.5674 36.5362 14.1909 32.1259 14.1909C27.7197 14.1909 24.0865 17.5608 23.6655 21.8579C24.3498 22.0318 25.0555 22.1204 25.7726 22.1204C28.235 22.1204 30.5505 21.0554 32.1546 19.2568C33.7588 21.0554 36.0743 22.1204 38.5366 22.1204C39.2333 22.1213 39.9192 22.0359 40.5871 21.871Z" fill="#FFDE3B"/>
<path d="M1.40723 22.0663H18.3633C18.0416 17.6699 14.3624 14.1909 9.88567 14.1909C5.40809 14.1917 1.72805 17.6707 1.40723 22.0663Z" fill="#453D81"/>
<path d="M24.1882 0C22.9812 0 21.8579 0.442261 21.0005 1.21355V13.9833C22.4627 13.9833 24.532 12.3784 25.8596 11.0032C27.019 9.80276 28.9636 7.39782 28.9636 4.77543C28.9636 2.14238 26.8213 0 24.1882 0Z" fill="#E50058"/>
<path d="M9.88477 22.0663H18.3624C18.0407 17.6699 14.3615 14.1909 9.88477 14.1909V22.0663Z" fill="#38336B"/>
<path d="M32.1548 14.1918V19.2577C33.7589 21.0562 36.0744 22.1213 38.5368 22.1213C39.2342 22.1213 39.9202 22.036 40.5881 21.8718C40.1737 17.5772 36.552 14.2065 32.1548 14.1918Z" fill="#FCBA00"/>
</svg>
